# xmcd
#
# Track frame offsets:
#	150
#	10655
#	35441
#	46931
#	56239
#	62115
#	78947
#	105253
#	112278
#	121762
#	135907
#	146778
#	159606
#
# Disc length: 2915 seconds
#
# Revision: 0
# Processed by: cddbd v1.5.2PL0 Copyright (c) Steve Scherf et al.
# Submitted via: EZCDAudioConverter 2.1.7.1
#
DISCID=a90b610d
DTITLE=Farm - The Innermost Limits Of Pure Fun
DYEAR=1900
DGENRE=
TTITLE0=Crystal Shingles
TTITLE1=Animal
TTITLE2=Wind 'N Sea
TTITLE3=Crumple Car
TTITLE4=Tobies Oats
TTITLE5=San Ho Zay
TTITLE6=Snake Charmer
TTITLE7=The Eater
TTITLE8=The Cruzer
TTITLE9=Ground Shuffle
TTITLE10=Innerspace
TTITLE11=Outeriff
TTITLE12=Coming Of The Dawn
EXTD=
EXTT0=
EXTT1=
EXTT2=
EXTT3=
EXTT4=
EXTT5=
EXTT6=
EXTT7=
EXTT8=
EXTT9=
EXTT10=
EXTT11=
EXTT12=
PLAYORDER=
